<svg xmlns="http://www.w3.org/2000/svg" viewBox="0 0 410 404"><defs><linearGradient id="a" x1="-.828%" x2="57.636%" y1="7.652%" y2="78.411%"><stop stop-color="#41D1FF" offset="0%"/><stop stop-color="#BD34FE" offset="100%"/></linearGradient><linearGradient id="b" x1="43.376%" x2="50.316%" y1="2.242%" y2="89.03%"><stop stop-color="#FFEA83" offset="0%"/><stop stop-color="#FFDD35" offset="8.333%"/><stop stop-color="#FFA800" offset="100%"/></linearGradient></defs><path fill="url(#a)" d="M399.641 59.524 215.642 388.545c-5.833 10.46-20.665 10.443-26.477-.033L9.357 59.558c-6.4-11.503 3.66-25.22 16.281-22.385l179.088 40.219a13.13 13.13 0 0 0 5.812-.001l172.76-39.65c12.594-2.889 22.74 10.767 16.38 22.289Z"/><path fill="url(#b)" d="m292.965 1.574-107.03 22.38a6.56 6.56 0 0 0-5.184 7.717l23.115 133.304a6.56 6.56 0 0 0 8.35 5.153l30.278-9.872c4.563-1.488 9.112 2.623 8.237 7.337l-8.998 47.733c-1.005 5.328 3.979 9.722 9.172 8.354l18.734-4.894c5.214-1.362 10.22 3.063 9.154 8.304l-14.163 70.37c-1.592 7.918 8.258 12.685 13.14 6.136l2.394-3.223 87.022-265.985c2.265-6.92-3.73-13.652-10.92-12.14l-46.56 9.71c-5.234 1.092-9.82-3.716-8.642-8.94l14.679-65.94c1.204-5.405-3.632-10.23-9.033-9.092Z"/></svg>
